<svg aria-hidden="true" style="position: absolute; width: 0; height: 0; overflow: hidden;" version="1.1"
  xmlns="http://www.w3.org/2000/svg" xmlns:xlink="http://www.w3.org/1999/xlink">
  <defs>
    <symbol id="icon-basket" viewBox="0 0 32 32">
      <path fill="#fff" style="fill: var(--color1, #fff)"
        d="M25.603 17.971l-0 0.003c-0.127 0.553-0.438 1.047-0.884 1.398s-0.997 0.541-1.564 0.536h-13.531v0.484c0 0.128 0.051 0.252 0.142 0.342s0.214 0.142 0.342 0.142h13.951c0.63 0 1.246 0.187 1.77 0.537s0.933 0.848 1.174 1.43c0.241 0.582 0.304 1.223 0.181 1.841s-0.427 1.186-0.872 1.632c-0.446 0.446-1.014 0.749-1.632 0.872s-1.259 0.060-1.841-0.181c-0.582-0.241-1.080-0.65-1.43-1.174s-0.537-1.14-0.537-1.77v-0.001c0.002-0.42 0.088-0.834 0.253-1.217h-5.88c0.165 0.383 0.251 0.797 0.253 1.217v0.001c0 0.845-0.336 1.656-0.933 2.253s-1.408 0.933-2.254 0.933c-0.845 0-1.656-0.336-2.253-0.933s-0.933-1.408-0.933-2.253v-0.004h0c0.007-0.448 0.109-0.888 0.298-1.291-0.454-0.132-0.862-0.393-1.174-0.756-0.388-0.451-0.599-1.027-0.593-1.622v-13.699h-1.953c-0.261 0-0.511-0.104-0.696-0.288s-0.288-0.435-0.288-0.696c0-0.261 0.104-0.511 0.288-0.696s0.435-0.288 0.696-0.288h2.937c0.261 0 0.511 0.104 0.696 0.288s0.288 0.435 0.288 0.696v1.953h15.169v0.25c0.333-0.002 0.662 0.072 0.962 0.216s0.564 0.354 0.771 0.614l-0.923 9.231zM25.603 17.971l1.601-7.343c0.076-0.355 0.072-0.723-0.011-1.076s-0.244-0.684-0.471-0.967l-1.119 9.387zM24.793 9.628v0l0.007-0c0.076-0.002 0.152 0.014 0.221 0.047s0.129 0.082 0.176 0.142v0l0.003 0.004c0.044 0.055 0.076 0.119 0.092 0.188s0.018 0.139 0.005 0.207l-1.608 7.341c-0.024 0.11-0.085 0.209-0.173 0.278s-0.198 0.107-0.311 0.104v0h-13.581v-8.311h15.169zM13.53 24.063c0 0.241-0.071 0.477-0.205 0.677s-0.324 0.357-0.547 0.449c-0.223 0.092-0.468 0.116-0.704 0.069s-0.453-0.163-0.624-0.333c-0.17-0.17-0.286-0.388-0.333-0.624s-0.023-0.481 0.069-0.704c0.092-0.223 0.248-0.413 0.449-0.547s0.436-0.205 0.677-0.205c0.323 0 0.633 0.128 0.862 0.357s0.357 0.538 0.357 0.862zM24.059 25.281c-0.241 0-0.477-0.071-0.677-0.205s-0.357-0.324-0.449-0.547c-0.092-0.223-0.116-0.468-0.069-0.704s0.163-0.454 0.334-0.624 0.387-0.287 0.624-0.334c0.236-0.047 0.481-0.023 0.704 0.069s0.413 0.248 0.547 0.449 0.205 0.436 0.205 0.677c0 0.323-0.128 0.633-0.357 0.862s-0.538 0.357-0.862 0.357z">
      </path>
    </symbol>
    <symbol id="icon-logo" viewBox="0 0 72 32">
      <path fill="#fff" style="fill: var(--color2, #fff)"
        d="M28.285 5.345c0-0.734 0.157-1.397 0.489-1.991s0.803-1.048 1.378-1.38c0.576-0.332 1.239-0.489 1.954-0.489 0.838 0 1.588 0.21 2.216 0.646s1.082 1.031 1.326 1.799h-1.745c-0.175-0.367-0.419-0.629-0.733-0.803s-0.663-0.262-1.082-0.262c-0.436 0-0.838 0.105-1.169 0.314s-0.611 0.489-0.803 0.856c-0.192 0.367-0.279 0.821-0.279 1.31s0.087 0.943 0.279 1.31c0.192 0.367 0.454 0.664 0.803 0.873s0.733 0.297 1.169 0.297c0.419 0 0.768-0.087 1.082-0.262 0.314-0.192 0.558-0.454 0.733-0.821h1.745c-0.244 0.769-0.698 1.38-1.326 1.799s-1.361 0.629-2.216 0.629c-0.715 0-1.378-0.157-1.954-0.489s-1.029-0.786-1.378-1.38c-0.332-0.559-0.489-1.223-0.489-1.956zM40.29 3.057c0.454 0 0.855 0.105 1.204 0.297s0.628 0.489 0.82 0.873c0.209 0.384 0.297 0.838 0.297 1.38v3.511h-1.518v-3.301c0-0.472-0.122-0.838-0.349-1.083-0.244-0.262-0.558-0.384-0.977-0.384s-0.75 0.122-0.995 0.384c-0.244 0.245-0.349 0.611-0.349 1.083v3.301h-1.518v-7.982h1.518v2.76c0.192-0.262 0.454-0.454 0.785-0.611s0.698-0.227 1.082-0.227zM43.676 6.114c0-0.611 0.122-1.135 0.349-1.607 0.244-0.472 0.576-0.821 0.977-1.083 0.419-0.245 0.89-0.384 1.396-0.384 0.454 0 0.838 0.087 1.169 0.262s0.611 0.402 0.803 0.681v-0.856h1.518v5.991h-1.518v-0.873c-0.192 0.279-0.471 0.507-0.803 0.699-0.332 0.175-0.733 0.262-1.169 0.262-0.506 0-0.96-0.122-1.378-0.384s-0.733-0.629-0.977-1.083c-0.244-0.472-0.366-1.013-0.366-1.624zM48.387 6.131c0-0.367-0.070-0.681-0.209-0.943s-0.332-0.472-0.576-0.611c-0.244-0.14-0.506-0.21-0.785-0.21s-0.541 0.070-0.785 0.21c-0.244 0.14-0.436 0.332-0.576 0.611-0.14 0.262-0.209 0.576-0.209 0.926s0.070 0.681 0.209 0.943c0.157 0.262 0.349 0.472 0.576 0.611 0.244 0.14 0.506 0.21 0.785 0.21s0.541-0.070 0.785-0.21c0.244-0.14 0.436-0.349 0.576-0.611 0.14-0.245 0.209-0.559 0.209-0.926zM54.686 3.057c0.715 0 1.291 0.227 1.727 0.681s0.663 1.065 0.663 1.886v3.511h-1.518v-3.319c0-0.472-0.122-0.838-0.349-1.083-0.244-0.262-0.558-0.384-0.977-0.384s-0.75 0.122-0.995 0.384c-0.244 0.245-0.349 0.611-0.349 1.083v3.301h-1.518v-5.974h1.518v0.751c0.209-0.262 0.454-0.454 0.768-0.611s0.663-0.227 1.030-0.227zM60.863 3.040c0.454 0 0.838 0.087 1.169 0.262s0.611 0.402 0.803 0.681v-0.856h1.518v6.044c0 0.559-0.105 1.048-0.332 1.485s-0.558 0.786-1.012 1.030c-0.454 0.262-0.977 0.384-1.623 0.384-0.855 0-1.553-0.192-2.094-0.594s-0.838-0.943-0.925-1.624h1.501c0.087 0.279 0.244 0.489 0.506 0.646s0.594 0.245 0.96 0.245c0.436 0 0.803-0.14 1.064-0.402 0.279-0.262 0.419-0.664 0.419-1.188v-0.926c-0.192 0.279-0.471 0.507-0.803 0.699s-0.733 0.279-1.169 0.279c-0.506 0-0.959-0.122-1.378-0.384s-0.75-0.629-0.995-1.083c-0.244-0.472-0.349-1.013-0.349-1.624s0.122-1.135 0.349-1.607c0.244-0.472 0.576-0.821 0.977-1.083 0.436-0.262 0.89-0.384 1.414-0.384zM62.835 6.131c0-0.367-0.070-0.681-0.21-0.943s-0.332-0.472-0.575-0.611c-0.244-0.14-0.506-0.21-0.786-0.21s-0.541 0.070-0.785 0.21c-0.244 0.14-0.436 0.332-0.576 0.611-0.14 0.262-0.209 0.576-0.209 0.926s0.070 0.681 0.209 0.943c0.157 0.262 0.349 0.472 0.576 0.611 0.244 0.14 0.506 0.21 0.785 0.21s0.541-0.070 0.786-0.21c0.244-0.14 0.436-0.349 0.575-0.611 0.14-0.245 0.21-0.559 0.21-0.926zM71.385 6.009c0 0.21-0.018 0.419-0.035 0.576h-4.362c0.035 0.437 0.192 0.769 0.454 1.013s0.593 0.367 0.977 0.367c0.558 0 0.96-0.245 1.204-0.716h1.623c-0.175 0.576-0.506 1.048-0.995 1.432-0.489 0.367-1.082 0.559-1.798 0.559-0.575 0-1.099-0.122-1.553-0.384s-0.803-0.629-1.065-1.083c-0.244-0.472-0.383-1.013-0.383-1.624s0.122-1.17 0.383-1.624c0.244-0.472 0.611-0.821 1.065-1.083 0.454-0.245 0.977-0.384 1.57-0.384 0.576 0 1.082 0.122 1.518 0.367 0.454 0.245 0.802 0.594 1.047 1.048 0.227 0.437 0.349 0.943 0.349 1.537zM69.832 5.572c0-0.384-0.14-0.699-0.419-0.926-0.279-0.245-0.611-0.349-1.012-0.349-0.367 0-0.698 0.122-0.942 0.349s-0.402 0.541-0.471 0.943h2.844v-0.017zM34.637 11.563l-2.548 4.908v2.62h-1.518v-2.62l-2.548-4.908h1.71l1.623 3.441 1.605-3.441h1.675zM38.162 19.196c-0.576 0-1.099-0.122-1.553-0.384s-0.82-0.629-1.082-1.083c-0.262-0.472-0.384-1.013-0.384-1.624s0.14-1.153 0.401-1.624c0.279-0.472 0.646-0.821 1.117-1.083s0.995-0.384 1.57-0.384c0.576 0 1.099 0.122 1.57 0.384 0.471 0.245 0.838 0.611 1.099 1.083 0.279 0.472 0.419 1.013 0.419 1.624s-0.14 1.153-0.419 1.624-0.646 0.838-1.117 1.083c-0.506 0.262-1.047 0.384-1.623 0.384zM38.162 17.869c0.279 0 0.523-0.070 0.768-0.192 0.244-0.14 0.436-0.332 0.576-0.611 0.14-0.262 0.209-0.594 0.209-0.978 0-0.576-0.157-1.013-0.454-1.31-0.297-0.314-0.663-0.472-1.082-0.472s-0.803 0.157-1.082 0.472c-0.279 0.297-0.436 0.734-0.436 1.31s0.14 1.013 0.419 1.31c0.297 0.332 0.646 0.472 1.082 0.472zM48.038 13.118v5.991h-1.518v-0.751c-0.192 0.262-0.454 0.472-0.768 0.611s-0.646 0.21-1.012 0.21c-0.471 0-0.89-0.105-1.239-0.297-0.366-0.21-0.646-0.489-0.855-0.873s-0.297-0.856-0.297-1.38v-3.511h1.518v3.301c0 0.472 0.122 0.838 0.349 1.1 0.244 0.245 0.558 0.384 0.977 0.384s0.75-0.122 0.977-0.384c0.244-0.262 0.349-0.629 0.349-1.1v-3.301h1.518zM51.039 14.044c0.192-0.314 0.454-0.559 0.75-0.751 0.314-0.175 0.681-0.262 1.082-0.262v1.59h-0.401c-0.471 0-0.838 0.105-1.082 0.332s-0.349 0.611-0.349 1.17v2.987h-1.518v-5.991h1.518v0.926zM30.152 22.742v1.886h2.53v1.205h-2.53v1.991h2.862v1.24h-4.38v-7.546h4.38v1.24h-2.862v-0.017zM37.708 23.004c0.715 0 1.291 0.227 1.727 0.681s0.663 1.066 0.663 1.886v3.511h-1.518v-3.319c0-0.472-0.122-0.838-0.349-1.083-0.244-0.262-0.558-0.384-0.977-0.384s-0.75 0.122-0.995 0.384c-0.244 0.245-0.349 0.611-0.349 1.083v3.301h-1.518v-5.991h1.518v0.751c0.209-0.262 0.454-0.454 0.768-0.611 0.314-0.14 0.646-0.21 1.029-0.21zM47.078 25.939c0 0.21-0.017 0.419-0.035 0.576h-4.38c0.035 0.437 0.192 0.769 0.454 1.013s0.593 0.367 0.977 0.367c0.558 0 0.96-0.245 1.204-0.716h1.623c-0.174 0.576-0.506 1.048-0.995 1.432-0.489 0.367-1.082 0.559-1.797 0.559-0.576 0-1.099-0.122-1.553-0.384s-0.803-0.629-1.064-1.083c-0.244-0.472-0.384-1.013-0.384-1.624s0.122-1.17 0.384-1.624c0.244-0.472 0.611-0.821 1.064-1.083 0.454-0.245 0.977-0.384 1.57-0.384 0.576 0 1.082 0.122 1.518 0.367 0.454 0.245 0.803 0.594 1.047 1.048s0.366 0.961 0.366 1.537zM45.525 25.52c0-0.384-0.14-0.699-0.419-0.926-0.279-0.245-0.611-0.349-1.012-0.349-0.366 0-0.698 0.122-0.942 0.349s-0.401 0.541-0.471 0.943h2.844v-0.017zM49.695 24.017c0.192-0.314 0.454-0.559 0.75-0.751 0.314-0.175 0.681-0.262 1.082-0.262v1.59h-0.401c-0.471 0-0.838 0.105-1.082 0.332s-0.349 0.611-0.349 1.17v2.987h-1.518v-5.991h1.518v0.926zM54.895 22.987c0.454 0 0.838 0.087 1.169 0.262s0.611 0.402 0.802 0.681v-0.856h1.518v6.026c0 0.559-0.105 1.048-0.332 1.485s-0.558 0.786-1.012 1.030c-0.454 0.262-0.977 0.384-1.623 0.384-0.855 0-1.553-0.192-2.094-0.594s-0.838-0.943-0.925-1.624h1.501c0.087 0.279 0.244 0.489 0.506 0.646s0.593 0.245 0.96 0.245c0.436 0 0.802-0.14 1.064-0.402 0.279-0.262 0.419-0.664 0.419-1.188v-0.926c-0.192 0.279-0.471 0.507-0.803 0.699s-0.733 0.279-1.169 0.279c-0.506 0-0.96-0.122-1.378-0.384s-0.75-0.629-0.995-1.083c-0.244-0.472-0.349-1.013-0.349-1.624s0.122-1.135 0.349-1.607c0.244-0.472 0.576-0.821 0.977-1.083 0.436-0.245 0.907-0.367 1.413-0.367zM56.867 26.078c0-0.367-0.070-0.681-0.209-0.943s-0.332-0.472-0.576-0.611c-0.244-0.14-0.506-0.21-0.785-0.21s-0.541 0.070-0.785 0.21c-0.244 0.14-0.436 0.332-0.576 0.611-0.14 0.262-0.209 0.576-0.209 0.926 0 0.367 0.070 0.681 0.209 0.943 0.157 0.262 0.349 0.472 0.576 0.611 0.244 0.14 0.506 0.21 0.785 0.21s0.541-0.070 0.785-0.21c0.244-0.14 0.436-0.349 0.576-0.611 0.14-0.245 0.209-0.559 0.209-0.926zM65.592 23.092l-3.699 8.821h-1.606l1.292-2.987-2.391-5.834h1.693l1.535 4.175 1.57-4.175h1.606z">
      </path>
      <path fill="#fdefe8" style="fill: var(--color3, #fdefe8)"
        d="M9.321 28.832c1.796 0 3.252-1.456 3.252-3.252s-1.456-3.252-3.252-3.252-3.252 1.456-3.252 3.252c0 1.796 1.456 3.252 3.252 3.252z">
      </path>
      <path fill="#fdefe8" style="fill: var(--color3, #fdefe8)"
        d="M3.13 23.963c1.623 0 2.939-1.316 2.939-2.939s-1.316-2.939-2.939-2.939c-1.623 0-2.939 1.316-2.939 2.939s1.316 2.939 2.939 2.939z">
      </path>
      <path fill="#fdefe8" style="fill: var(--color3, #fdefe8)"
        d="M2.574 16.798c1.421 0 2.574-1.152 2.574-2.574s-1.152-2.574-2.574-2.574c-1.421 0-2.574 1.152-2.574 2.574s1.152 2.574 2.574 2.574z">
      </path>
      <path fill="#fdefe8" style="fill: var(--color3, #fdefe8)"
        d="M6.069 11.704c1.191 0 2.156-0.965 2.156-2.156s-0.965-2.156-2.156-2.156-2.156 0.965-2.156 2.156c0 1.191 0.965 2.156 2.156 2.156z">
      </path>
      <path fill="#fdefe8" style="fill: var(--color3, #fdefe8)"
        d="M11.043 11.042c1.018 0 1.843-0.825 1.843-1.843s-0.825-1.843-1.843-1.843-1.843 0.825-1.843 1.843c0 1.018 0.825 1.843 1.843 1.843z">
      </path>
      <path fill="#fdefe8" style="fill: var(--color3, #fdefe8)"
        d="M14.834 13.164c0.874 0 1.582-0.709 1.582-1.582s-0.708-1.582-1.582-1.582-1.582 0.709-1.582 1.582c0 0.874 0.708 1.582 1.582 1.582z">
      </path>
      <path fill="#fdc793" style="fill: var(--color4, #fdc793)"
        d="M13.529 6.504c1.796 0 3.252-1.456 3.252-3.252s-1.456-3.252-3.252-3.252c-1.796 0-3.252 1.456-3.252 3.252s1.456 3.252 3.252 3.252z">
      </path>
      <path fill="#fdc793" style="fill: var(--color4, #fdc793)"
        d="M20.085 10.225c1.623 0 2.939-1.316 2.939-2.939s-1.316-2.939-2.939-2.939c-1.623 0-2.939 1.316-2.939 2.939s1.316 2.939 2.939 2.939z">
      </path>
      <path fill="#fdc793" style="fill: var(--color4, #fdc793)"
        d="M21.181 16.59c1.421 0 2.574-1.152 2.574-2.574s-1.152-2.574-2.574-2.574c-1.421 0-2.574 1.152-2.574 2.574s1.152 2.574 2.574 2.574z">
      </path>
      <path fill="#fdc793" style="fill: var(--color4, #fdc793)"
        d="M18.102 21.128c1.191 0 2.156-0.965 2.156-2.156s-0.965-2.156-2.156-2.156-2.156 0.965-2.156 2.156c0 1.191 0.965 2.156 2.156 2.156z">
      </path>
      <path fill="#fdc793" style="fill: var(--color4, #fdc793)"
        d="M13.164 21.581c1.018 0 1.843-0.825 1.843-1.843s-0.825-1.843-1.843-1.843c-1.018 0-1.843 0.825-1.843 1.843s0.825 1.843 1.843 1.843z">
      </path>
      <path fill="#fdc793" style="fill: var(--color4, #fdc793)"
        d="M9.199 19.25c0.874 0 1.582-0.708 1.582-1.582s-0.708-1.582-1.582-1.582c-0.874 0-1.582 0.708-1.582 1.582s0.708 1.582 1.582 1.582z">
      </path>
    </symbol>
    <symbol id="icon-scroll" viewBox="0 0 22 32">
      <path fill="#fff" style="fill: var(--color2, #fff)"
        d="M10.667 32c-5.892 0-10.667-4.954-10.667-11.030v-9.971c0-6.076 4.774-10.999 10.667-10.999s10.667 4.923 10.667 10.999v9.971c0 6.076-4.774 11.030-10.667 11.030zM10.667 2.648c-4.472 0-8.098 3.739-8.098 8.351v9.971c0 4.612 3.626 8.351 8.098 8.351s8.098-3.739 8.098-8.351v-9.971c0-4.612-3.626-8.351-8.098-8.351z">
      </path>
      <path fill="#fff" style="fill: var(--color2, #fff)"
        d="M10.667 13.333c-0.951 0-1.778-0.693-1.778-1.568v-3.975c0-0.839 0.786-1.568 1.778-1.568s1.778 0.693 1.778 1.568v3.975c0 0.875-0.786 1.568-1.778 1.568z">
      </path>
    </symbol>
    <symbol id="icon-user" viewBox="0 0 26 32">
      <path fill="#fff" style="fill: var(--color2, #fff)"
        d="M12.563 12.563c-1.666 0-3.264-0.662-4.442-1.84s-1.84-2.776-1.84-4.442c0-1.666 0.662-3.264 1.84-4.442s2.776-1.84 4.442-1.84c1.666 0 3.264 0.662 4.442 1.84s1.84 2.776 1.84 4.442c0 1.666-0.662 3.264-1.84 4.442s-2.776 1.84-4.442 1.84zM12.563 3.141c-0.833 0-1.632 0.331-2.221 0.92s-0.92 1.388-0.92 2.221 0.331 1.632 0.92 2.221c0.589 0.589 1.388 0.92 2.221 0.92s1.632-0.331 2.221-0.92c0.589-0.589 0.92-1.388 0.92-2.221s-0.331-1.632-0.92-2.221c-0.589-0.589-1.388-0.92-2.221-0.92zM20.415 31.407h-15.704c-1.249 0-2.448-0.496-3.331-1.38s-1.38-2.082-1.38-3.331c0-3.332 1.324-6.527 3.68-8.883s5.551-3.68 8.883-3.68c3.332 0 6.528 1.323 8.883 3.68s3.68 5.552 3.68 8.883c0 1.25-0.496 2.448-1.38 3.331s-2.082 1.38-3.331 1.38h0.001zM12.563 17.274c-2.499 0-4.895 0.993-6.663 2.76s-2.76 4.164-2.76 6.662c0 0.417 0.165 0.816 0.46 1.11s0.694 0.46 1.11 0.46h15.704c0.416 0 0.816-0.166 1.11-0.46s0.46-0.694 0.46-1.11c0-2.499-0.993-4.895-2.76-6.662s-4.164-2.76-6.663-2.76h-0z">
      </path>
    </symbol>
    <symbol id="icon-search" viewBox="0 0 32 32">
      <path fill="#fff" style="fill: var(--color2, #fff)"
        d="M13.352 2.604c-5.891 0-10.667 4.776-10.667 10.667s4.776 10.667 10.667 10.667c2.449 0 4.77-0.841 6.57-2.228l5.804 5.853c0.521 0.52 1.396 0.52 1.917 0 0.521-0.521 0.521-1.396 0-1.917l-5.845-5.813c1.388-1.8 2.22-4.112 2.22-6.561 0-5.891-4.776-10.667-10.667-10.667zM13.352 5.271c4.418 0 8 3.581 8 8s-3.582 8-8 8c-4.418 0-8-3.581-8-8s3.582-8 8-8z">
      </path>
    </symbol>
  </defs>
</svg>