<svg version="1.0" xmlns="http://www.w3.org/2000/svg" width="1130.667" height="1130.667" viewBox="0 0 848 848"><path d="M452.8.5c-.2.2-2.1.5-4.3.9-15.6 2.2-35.5 12-47.9 23.4-7.3 6.8-14.5 15.9-19 24.2-2.5 4.6-7.6 17-7 17 .3 0 0 .8-.5 1.9-.6 1-1.3 3.1-1.5 4.7-.3 1.6-1 5.1-1.5 7.7-2.2 11.8 0 33.8 4.5 46 2.4 6.5 8.7 18.7 9.6 18.7.4 0 .8.5.8 1.1 0 1.7 6.5 9.6 13.4 16.3 5.6 5.4 19.7 15.6 22.1 16 .6.1 1.7.6 2.5 1.1 1.7 1.1 10.5 4.4 13.3 5 .9.2 2 .6 2.5.8.4.3 2.4.8 4.5 1.1 2 .3 5.4.9 7.5 1.3 7.9 1.4 31.4.2 33.7-1.7.7-.5 1.4-.7 1.7-.5.7.8 15.1-4.6 20.8-7.6 16.3-8.8 30.6-22.8 39-38.2 2.7-4.9 9-20.4 9-22.2 0-.3 0-.6.1-.8 2-6.5 2.8-25.9 1.6-36.1-1.2-9-7.2-26.8-10.4-30.7-.7-.8-1.3-2-1.3-2.5 0-.6-1.1-2.6-2.5-4.5s-3.3-4.5-4.2-5.9c-3-4.2-13.5-14.4-19.3-18.7C503.4 6 484.5.1 462.8.2c-5.4.1-9.9.2-10 .3zm192 126c-.1.1-2.4.6-5.1.9-2.6.4-5.8 1.1-7.2 1.6-1.4.5-2.5.6-2.5.3 0-.4-.5-.2-1.2.5s-1.8 1.2-2.5 1.2c-3.2 0-20.9 9.8-26 14.4-11.1 10.2-19.7 21.8-24.6 33.3-1.5 3.5-2.4 6.3-2.1 6.3.2 0 0 1-.7 2.1-.6 1.2-1.3 3.6-1.6 5.3-.3 1.7-.8 5-1.2 7.3-1.7 9-.2 28.5 2.7 35.6.7 1.6 1.2 3.4 1.2 4.1 0 .7 1.1 3.4 2.5 6 1.3 2.5 2.2 4.6 2 4.6-.6 0 6 10.2 9 14 3.9 4.9 12.1 12.7 17.5 16.6 6.2 4.5 18.8 10.9 22 11.2.3 0 1.8.5 3.3 1.1 1.5.6 4 1.3 5.5 1.6 1.5.2 4.5.8 6.7 1.1 9.3 1.7 23.7.7 35-2.3 6.1-1.6 21.6-8.6 23.8-10.7.7-.7 2.8-2.2 4.7-3.5 3.7-2.5 17-16 17-17.2 0-.4.7-1.4 1.4-2.2 3.7-3.7 11.3-20.6 13-28.8 1.9-9.5 2.2-12.4 1.9-20.4-.1-5-.4-10.6-.7-12.5-1-8.4-6-22.7-9.8-28.2-1-1.4-1.8-2.9-1.8-3.2 0-.4-.4-1.2-1-1.9-.5-.7-3.1-3.9-5.7-7.2-11.6-14.7-31-26.4-49.4-30-3.7-.7-25.5-1.6-26.1-1zm-265.6 88.6c-12.8 3.2-23.8 11-31.2 22-2.2 3.2-4 6.1-4 6.4 0 .4-.6 2.1-1.4 3.8-2.6 5.7-3.4 10.5-3.4 20 .1 11.1 2.7 20 8.4 28.6 5 7.5 15.3 17.1 18.4 17.1.5 0 1 .4 1 .8 0 1.2 13.4 5.4 18.8 5.9 7.5.7 10.5.6 19.2-1 3.1-.6 12-4.1 12-4.8 0-.4 1-.9 2.3-1.3 3.4-.8 13.3-10.2 17-16 4.5-7 6.9-11.6 6.2-11.6-.3 0-.1-.9.5-2 1.6-3 2.3-8.4 2.3-17.5 0-13.9-5.4-26.4-16.1-37.1-5.2-5.2-16.1-11.6-22.2-13-1.9-.4-4.2-.9-5-1.2-4.5-1.1-16.7-.7-22.8.9zm-136.4-.6c-.2.2-2.3.5-4.8.8-17.8 1.9-37.2 16.2-45.7 33.7-4.8 10-6.4 16.1-6.6 25.6-.1 9.5.8 16 3.4 23 2.8 7.6 7.6 16.1 9.7 17.4 1 .5 1.3 1 .7 1-.5 0 2 2.8 5.7 6.3 9.2 8.5 21.6 14.7 32.8 16.2 6.1.9 18.3.9 21.1 0 .9-.3 2.8-.8 4-1 4.8-.9 11.9-3.7 11.9-4.6 0-.6.4-.8.9-.5 2 1.3 22.1-15.4 22.1-18.4 0-.6.4-1 .8-1 2.4 0 12-24.5 10.8-27.6-.3-.7-.1-1.6.3-1.9 1-.5.5-17-.5-18.6-.3-.6-.8-2.5-1.1-4.2-.2-1.8-2.3-7-4.6-11.7-8.2-16.9-25.9-30.3-43.9-33.5-3.7-.7-16.5-1.4-17-1zm261 75.1c-.3.2-2.9.6-5.9.9-4.9.4-9 1-9.6 1.5-.2.2-.6.3-1 .5-4.8 1.3-13.4 6.7-17.9 11.2-3.1 3.1-9.4 12.7-9.9 15.1-.2.9-.8 3-1.5 4.7-1.6 4.1-2.1 15.4-.9 20.1.6 2.2 1.1 4.6 1.2 5.4.5 2.9 3.1 9 3.9 9 .4 0 .8.6.8 1.4 0 .8 2.5 4.1 5.5 7.4 6.2 6.6 16.7 12.6 24.8 14.1 15.3 2.8 33.4-3.2 42.5-14.1 1.4-1.7 3.1-3.5 3.7-4.2.6-.6 2.1-3.4 3.4-6.1 1.3-2.8 2.8-6.1 3.4-7.4.7-1.4 1.2-7 1.1-13.5 0-9.4-.4-11.8-2.4-16.1-1.3-2.8-2.4-5.2-2.4-5.5-.1-.3-1-1.8-2.1-3.5-6.7-10.1-20.1-18.6-31-19.8-1.7-.2-3.6-.6-4.2-1-.5-.3-1.2-.4-1.5-.1zm177.7 42.2c-.1.1-2.4.5-5.1.8-9.3 1.1-27.4 7.4-27.4 9.5 0 .5-.5.9-1.1.9-1.8 0-9.1 5.5-14.7 11-4.2 4.2-14.4 18.7-14.8 21 0 .3-.6 1.8-1.3 3.5-2 4.7-5.1 16.8-5.1 19.5 0 1.4-.1 5-.2 8-1.1 34.3 24.7 66.2 59.3 73.5 10 2.1 27.2 1.4 36.4-1.5 23.6-7.5 41.1-24.2 48.9-46.6 3.2-9.3 3.9-13.3 4-23.9.1-12.8-1.3-20.3-5.4-30-.8-1.7-1.4-3.2-1.4-3.5-.5-2.5-8.9-14.2-13.9-19.2-8.1-8.1-9.6-9.3-18.1-13.8-11.2-6-20.9-8.5-35.9-9.3-2.1-.1-4-.1-4.2.1zm-531.6 5.6c-.2.2-4 .6-8.4.9-4.4.3-9 .8-10.2 1.1-1.3.3-3.3.8-4.4 1.1-14.8 3.2-35.5 18.7-43.8 32.8-3.3 5.6-7.8 16-8.7 20-.3 1.2-.8 3.5-1.2 5.2-1.4 6.5-.6 29.4 1.1 32.2.3.5.8 2.2 1.1 3.7.7 3.9 5.9 14.7 9.8 20.3 4 5.9 18.4 20.3 20.2 20.3.2 0 3.2 1.6 6.5 3.4 3.4 1.9 6.1 3.3 6.1 3 0-.2 1.3.2 2.8 1 9.6 4.9 35.4 5.9 46.4 1.7 1.3-.5 2.5-.9 2.8-.9 1.7-.2 7.7-2.9 16.4-7.4 4.5-2.3 20.5-17.9 22.9-22.3 12.2-22.8 14.8-39.6 9.2-61-1.8-6.7-7.8-19.7-10.1-21.5-.8-.7-1.4-1.7-1.4-2.2 0-.8-7.4-9.3-10.5-12-6.9-6-21.9-14.5-27.4-15.4-1.4-.3-3.3-.7-4.1-1.1-2.2-.9-4-1.3-8.7-1.7-2.3-.3-4.6-.7-5.1-1-.5-.3-1.1-.4-1.3-.2zM327.7 468c-15 3.9-25.8 13.4-31.8 28.1-1.8 4.2-2.3 7.5-2.3 14.9-.1 12.7.7 16 6.5 26 4.5 8 18.5 18.2 26.8 19.6 1.4.3 3.4.7 4.4 1 3.1.9 13.2.6 18.3-.7 16.9-4.1 31.7-19.6 34.2-35.9 1-5.9.4-20.5-.8-20.5-.1 0-.3-.8-.5-1.7-.9-4.9-6.2-13.5-11.6-18.8-11.8-11.7-27.5-16.1-43.2-12zm263.6 20.1c-1 .4-2.1.5-2.5.2-2.4-1.3-27.8 8.6-27.8 10.9 0 .4-.4.8-1 .8-2.6 0-18 17.9-18 20.9 0 .6-.4 1.1-1 1.1s-.9.3-.8.7c.1.5-.4 2-1 3.5-4.7 11.4-5.9 27-2.9 38.8 1.6 6.2 2.3 8.2 5.3 14 11 21.1 33.1 34.2 56.5 33.4 10.2-.3 14.2-1.1 22.7-4.6 35.3-14.6 49.3-57.4 29.6-90-3.4-5.6-9.9-12.8-15.8-17.7-5.7-4.6-19.2-10.4-26.6-11.4-1.9-.3-3.5-.6-3.5-.7 0-.5-11.7-.5-13.2.1zm-147.8 31.7c-9.9 1.8-24.2 10.3-30 17.7-1.6 2.1-3.4 4.3-4 4.9-2.6 3.1-7 13.2-8.1 18.9-.8 4.2-1.2 18.9-.5 20.2.5 1 1 2.6 1.5 5.5.1.8 1.1 3.5 2.1 6 1.1 2.5 1.8 4.7 1.6 4.9-.1.2.1.7.6 1 .5.3 2 2.2 3.3 4.1 7.2 10.6 20.1 19 33.5 21.8 3.8.8 16 .8 20.5 0 13.3-2.4 26.5-11.3 34.5-23.4 14.1-21.2 10.1-51.4-8.9-68.7-11.4-10.3-31-15.8-46.1-12.9zm-285.8 4.8c-.1.1-2.7.5-5.7.8-22.6 2.2-45.1 15.9-59.7 36.3-5.2 7.3-13 25.4-11.7 27.4.3.5.1.9-.4.9s-.9.6-.9 1.2c0 .7-.4 3.3-.8 5.8-1.4 8.4-.7 26.2 1.3 32.5.3 1.1.7 2.2.7 2.5 1.3 5 1.9 6.7 2.8 7.7.5.7.7 1.3.3 1.3-.8 0 6.1 12.8 9 16.7 1.3 1.7 2.4 3.4 2.4 3.7 0 1.3 8.1 9.3 14.9 14.8 22.2 17.8 50.4 22.9 80.1 14.4 5.3-1.5 18.6-8.6 24.4-13.1 8.9-6.8 23.6-24.5 23.6-28.4 0-.6.5-1.1 1.2-1.1.6 0 .8-.3.5-.7-.4-.3-.1-1.6.7-2.8 1.6-2.4 5.5-14.4 6.3-19 .9-5.5 1-28.6.1-29.1-.5-.3-.6-.9-.4-1.3.3-.4-.1-2.9-.9-5.4-.8-2.6-1.1-4.7-.8-4.7.3 0 .1-.6-.4-1.3-.5-.6-1.5-3.1-2.3-5.5-.7-2.3-1.7-4.2-2.2-4.2-.4 0-.7-.3-.6-.8.3-1.1-4.5-10.2-5.4-10.2-.4 0-.8-.4-.8-1 0-1.5-2.8-4.8-10.6-12.5-9.6-9.6-12-11.3-23.9-17-6.5-3.1-14.2-5.5-22.5-7.1-3.4-.6-17.8-1.2-18.3-.8zm178 123c-.1.1-2.7.5-5.9.8-7.2.9-18.9 4.1-23.9 6.7-2.1 1-3.9 1.7-3.9 1.4 0-.4-1.2.2-2.8 1.2-4.6 3.1-6.6 4.3-8.2 5-.8.4-1.7.9-2 1.2-.3.4-2.3 1.9-4.5 3.6-16.1 11.8-29 32-34.2 53.5-2.7 11.4-2.4 33.6.6 43.8.5 1.8 1.1 3.6 1.2 4 .1.4.3 1.1.5 1.7 5.9 17.4 14.4 30.4 27.6 42.2 4.4 3.8 13.3 10.3 14.3 10.3.4 0 1.9.8 3.3 1.9 3.5 2.4 17.6 7.7 22.6 8.5 2.1.4 4.1.8 4.5 1 .6.4 13.4 1.9 15.6 1.8 2 0 17-1.3 19-1.5 1.1-.2 2.6-.6 3.3-1.1.6-.4 1.2-.5 1.2-.2s1.2.1 2.8-.5c1.5-.6 3.7-1.3 5-1.5 5.4-1 21.7-9.6 28.2-14.9 3.1-2.4 14.8-14.2 17.5-17.6 5.3-6.5 14.6-25.7 16-32.8.2-1.3.6-3 .9-3.9 1.8-5.8 2.9-30.9 1.4-31.8-.5-.3-.6-.9-.4-1.3.6-.9-1.8-11.6-3.9-17.9-5.1-14.8-15.1-29.6-27.6-40.7-5.1-4.6-12.1-9.5-13.5-9.5-.6 0-1.7-.7-2.4-1.5-1.2-1.5-16.8-7.7-23.5-9.4-7-1.7-27.6-3.5-28.8-2.5z"/></svg>