<?xml version="1.0" standalone="no"?>
<!DOCTYPE svg PUBLIC "-//W3C//DTD SVG 20010904//EN"
 "http://www.w3.org/TR/2001/REC-SVG-20010904/DTD/svg10.dtd">
<svg version="1.0" xmlns="http://www.w3.org/2000/svg"
 width="848.000000pt" height="848.000000pt" viewBox="0 0 848.000000 848.000000"
 preserveAspectRatio="xMidYMid meet">
<metadata>
Created by potrace 1.14, written by Peter Selinger 2001-2017
</metadata>
<g transform="translate(0.000000,848.000000) scale(0.100000,-0.100000)"
fill="#000000" stroke="none">
<path d="M4528 8475 c-2 -2 -21 -5 -43 -9 -156 -22 -355 -120 -479 -234 -73
-68 -145 -159 -190 -242 -25 -46 -76 -170 -70 -170 3 0 0 -8 -5 -19 -6 -10
-13 -31 -15 -47 -3 -16 -10 -51 -15 -77 -22 -118 0 -338 45 -460 24 -65 87
-187 96 -187 4 0 8 -5 8 -11 0 -17 65 -96 134 -163 56 -54 197 -156 221 -160
6 -1 17 -6 25 -11 17 -11 105 -44 133 -50 9 -2 20 -6 25 -8 4 -3 24 -8 45 -11
20 -3 54 -9 75 -13 79 -14 314 -2 337 17 7 5 14 7 17 5 7 -8 151 46 208 76
163 88 306 228 390 382 27 49 90 204 90 222 0 3 0 6 1 8 20 65 28 259 16 361
-12 90 -72 268 -104 307 -7 8 -13 20 -13 25 0 6 -11 26 -25 45 -14 19 -33 45
-42 59 -30 42 -135 144 -193 187 -166 123 -355 182 -572 181 -54 -1 -99 -2
-100 -3z"/>
<path d="M6448 7215 c-1 -1 -24 -6 -51 -9 -26 -4 -58 -11 -72 -16 -14 -5 -25
-6 -25 -3 0 4 -5 2 -12 -5 -7 -7 -18 -12 -25 -12 -32 0 -209 -98 -260 -144
-111 -102 -197 -218 -246 -333 -15 -35 -24 -63 -21 -63 2 0 0 -10 -7 -21 -6
-12 -13 -36 -16 -53 -3 -17 -8 -50 -12 -73 -17 -90 -2 -285 27 -356 7 -16 12
-34 12 -41 0 -7 11 -34 25 -60 13 -25 22 -46 20 -46 -6 0 60 -102 90 -140 39
-49 121 -127 175 -166 62 -45 188 -109 220 -112 3 0 18 -5 33 -11 15 -6 40
-13 55 -16 15 -2 45 -8 67 -11 93 -17 237 -7 350 23 61 16 216 86 238 107 7 7
28 22 47 35 37 25 170 160 170 172 0 4 7 14 14 22 37 37 113 206 130 288 19
95 22 124 19 204 -1 50 -4 106 -7 125 -10 84 -60 227 -98 282 -10 14 -18 29
-18 32 0 4 -4 12 -10 19 -5 7 -31 39 -57 72 -116 147 -310 264 -494 300 -37 7
-255 16 -261 10z"/>
<path d="M3792 6329 c-128 -32 -238 -110 -312 -220 -22 -32 -40 -61 -40 -64 0
-4 -6 -21 -14 -38 -26 -57 -34 -105 -34 -200 1 -111 27 -200 84 -286 50 -75
153 -171 184 -171 5 0 10 -4 10 -8 0 -12 134 -54 188 -59 75 -7 105 -6 192 10
31 6 120 41 120 48 0 4 10 9 23 13 34 8 133 102 170 160 45 70 69 116 62 116
-3 0 -1 9 5 20 16 30 23 84 23 175 0 139 -54 264 -161 371 -52 52 -161 116
-222 130 -19 4 -42 9 -50 12 -45 11 -167 7 -228 -9z"/>
<path d="M2428 6335 c-2 -2 -23 -5 -48 -8 -178 -19 -372 -162 -457 -337 -48
-100 -64 -161 -66 -256 -1 -95 8 -160 34 -230 28 -76 76 -161 97 -174 10 -5
13 -10 7 -10 -5 0 20 -28 57 -63 92 -85 216 -147 328 -162 61 -9 183 -9 211 0
9 3 28 8 40 10 48 9 119 37 119 46 0 6 4 8 9 5 20 -13 221 154 221 184 0 6 4
10 8 10 24 0 120 245 108 276 -3 7 -1 16 3 19 10 5 5 170 -5 186 -3 6 -8 25
-11 42 -2 18 -23 70 -46 117 -82 169 -259 303 -439 335 -37 7 -165 14 -170 10z"/>
<path d="M5038 5584 c-3 -2 -29 -6 -59 -9 -49 -4 -90 -10 -96 -15 -2 -2 -6 -3
-10 -5 -48 -13 -134 -67 -179 -112 -31 -31 -94 -127 -99 -151 -2 -9 -8 -30
-15 -47 -16 -41 -21 -154 -9 -201 6 -22 11 -46 12 -54 5 -29 31 -90 39 -90 4
0 8 -6 8 -14 0 -8 25 -41 55 -74 62 -66 167 -126 248 -141 153 -28 334 32 425
141 14 17 31 35 37 42 6 6 21 34 34 61 13 28 28 61 34 74 7 14 12 70 11 135 0
94 -4 118 -24 161 -13 28 -24 52 -24 55 -1 3 -10 18 -21 35 -67 101 -201 186
-310 198 -17 2 -36 6 -42 10 -5 3 -12 4 -15 1z"/>
<path d="M6815 5162 c-1 -1 -24 -5 -51 -8 -93 -11 -274 -74 -274 -95 0 -5 -5
-9 -11 -9 -18 0 -91 -55 -147 -110 -42 -42 -144 -187 -148 -210 0 -3 -6 -18
-13 -35 -20 -47 -51 -168 -51 -195 0 -14 -1 -50 -2 -80 -11 -343 247 -662 593
-735 100 -21 272 -14 364 15 236 75 411 242 489 466 32 93 39 133 40 239 1
128 -13 203 -54 300 -8 17 -14 32 -14 35 -5 25 -89 142 -139 192 -81 81 -96
93 -181 138 -112 60 -209 85 -359 93 -21 1 -40 1 -42 -1z"/>
<path d="M1499 5106 c-2 -2 -40 -6 -84 -9 -44 -3 -90 -8 -102 -11 -13 -3 -33
-8 -44 -11 -148 -32 -355 -187 -438 -328 -33 -56 -78 -160 -87 -200 -3 -12 -8
-35 -12 -52 -14 -65 -6 -294 11 -322 3 -5 8 -22 11 -37 7 -39 59 -147 98 -203
40 -59 184 -203 202 -203 2 0 32 -16 65 -34 34 -19 61 -33 61 -30 0 2 13 -2
28 -10 96 -49 354 -59 464 -17 13 5 25 9 28 9 17 2 77 29 164 74 45 23 205
179 229 223 122 228 148 396 92 610 -18 67 -78 197 -101 215 -8 7 -14 17 -14
22 0 8 -74 93 -105 120 -69 60 -219 145 -274 154 -14 3 -33 7 -41 11 -22 9
-40 13 -87 17 -23 3 -46 7 -51 10 -5 3 -11 4 -13 2z"/>
<path d="M3277 3800 c-150 -39 -258 -134 -318 -281 -18 -42 -23 -75 -23 -149
-1 -127 7 -160 65 -260 45 -80 185 -182 268 -196 14 -3 34 -7 44 -10 31 -9
132 -6 183 7 169 41 317 196 342 359 10 59 4 205 -8 205 -1 0 -3 8 -5 17 -9
49 -62 135 -116 188 -118 117 -275 161 -432 120z"/>
<path d="M5913 3599 c-10 -4 -21 -5 -25 -2 -24 13 -278 -86 -278 -109 0 -4 -4
-8 -10 -8 -26 0 -180 -179 -180 -209 0 -6 -4 -11 -10 -11 -6 0 -9 -3 -8 -7 1
-5 -4 -20 -10 -35 -47 -114 -59 -270 -29 -388 16 -62 23 -82 53 -140 110 -211
331 -342 565 -334 102 3 142 11 227 46 353 146 493 574 296 900 -34 56 -99
128 -158 177 -57 46 -192 104 -266 114 -19 3 -35 6 -35 7 0 5 -117 5 -132 -1z"/>
<path d="M4435 3282 c-99 -18 -242 -103 -300 -177 -16 -21 -34 -43 -40 -49
-26 -31 -70 -132 -81 -189 -8 -42 -12 -189 -5 -202 5 -10 10 -26 15 -55 1 -8
11 -35 21 -60 11 -25 18 -47 16 -49 -1 -2 1 -7 6 -10 5 -3 20 -22 33 -41 72
-106 201 -190 335 -218 38 -8 160 -8 205 0 133 24 265 113 345 234 141 212
101 514 -89 687 -114 103 -310 158 -461 129z"/>
<path d="M1577 3234 c-1 -1 -27 -5 -57 -8 -226 -22 -451 -159 -597 -363 -52
-73 -130 -254 -117 -274 3 -5 1 -9 -4 -9 -5 0 -9 -6 -9 -12 0 -7 -4 -33 -8
-58 -14 -84 -7 -262 13 -325 3 -11 7 -22 7 -25 13 -50 19 -67 28 -77 5 -7 7
-13 3 -13 -8 0 61 -128 90 -167 13 -17 24 -34 24 -37 0 -13 81 -93 149 -148
222 -178 504 -229 801 -144 53 15 186 86 244 131 89 68 236 245 236 284 0 6 5
11 12 11 6 0 8 3 5 7 -4 3 -1 16 7 28 16 24 55 144 63 190 9 55 10 286 1 291
-5 3 -6 9 -4 13 3 4 -1 29 -9 54 -8 26 -11 47 -8 47 3 0 1 6 -4 13 -5 6 -15
31 -23 55 -7 23 -17 42 -22 42 -4 0 -7 3 -6 8 3 11 -45 102 -54 102 -4 0 -8 4
-8 10 0 15 -28 48 -106 125 -96 96 -120 113 -239 170 -65 31 -142 55 -225 71
-34 6 -178 12 -183 8z"/>
<path d="M3357 2004 c-1 -1 -27 -5 -59 -8 -72 -9 -189 -41 -239 -67 -21 -10
-39 -17 -39 -14 0 4 -12 -2 -28 -12 -46 -31 -66 -43 -82 -50 -8 -4 -17 -9 -20
-12 -3 -4 -23 -19 -45 -36 -161 -118 -290 -320 -342 -535 -27 -114 -24 -336 6
-438 5 -18 11 -36 12 -40 1 -4 3 -11 5 -17 59 -174 144 -304 276 -422 44 -38
133 -103 143 -103 4 0 19 -8 33 -19 35 -24 176 -77 226 -85 21 -4 41 -8 45
-10 6 -4 134 -19 156 -18 20 0 170 13 190 15 11 2 26 6 33 11 6 4 12 5 12 2 0
-3 12 -1 28 5 15 6 37 13 50 15 54 10 217 96 282 149 31 24 148 142 175 176
53 65 146 257 160 328 2 13 6 30 9 39 18 58 29 309 14 318 -5 3 -6 9 -4 13 6
9 -18 116 -39 179 -51 148 -151 296 -276 407 -51 46 -121 95 -135 95 -6 0 -17
7 -24 15 -12 15 -168 77 -235 94 -70 17 -276 35 -288 25z"/>
</g>
</svg>
