<svg aria-hidden="true" style="position:absolute;width:0;height:0" xmlns="http://www.w3.org/2000/svg" overflow="hidden"><defs><symbol id="icon-basket" viewBox="0 0 32 32"><path fill="var(--color2, #ffb89a)" d="M11.819 27.288a1.72 1.72 0 003.438 0 1.72 1.72 0 00-3.438 0zm13.165 0a1.72 1.72 0 003.438 0 1.72 1.72 0 00-3.438 0z"/><path fill="currentColor" d="M27.806 22.566H11.837A2.14 2.14 0 019.7 20.429v-.044L8.578 8.438v-.012L8.39 6.695c-.269-2.712-1.8-3.672-3.041-4.003l-2.178-.534a.937.937 0 10-.446 1.822l2.153.528c.506.134.878.388 1.144.772.269.388.438.928.503 1.606l.188 1.738 1.112 11.853a4.018 4.018 0 004.012 3.966h15.969a.937.937 0 100-1.876z"/><path fill="currentColor" d="M26.259 6.181H11.906a.937.937 0 100 1.876h14.353c.944 0 1.716.759 1.734 1.697l-.622 7.078-.003.041v.041c0 .956-.778 1.734-1.734 1.734H13.625a.937.937 0 100 1.876h12.009a3.616 3.616 0 003.609-3.566l.622-7.081.003-.041v-.041a3.613 3.613 0 00-3.609-3.612zM12.766 26.316c.225 0 .409.184.409.409s-.184.409-.409.409-.409-.184-.409-.409.184-.409.409-.409zm0-1.875a2.283 2.283 0 10-.001 4.567 2.283 2.283 0 00.001-4.567zm12.956 1.875c.225 0 .409.184.409.409s-.184.409-.409.409-.409-.184-.409-.409.184-.409.409-.409zm0-1.875a2.283 2.283 0 10-.001 4.567 2.283 2.283 0 00.001-4.567z"/></symbol><symbol id="icon-logo" viewBox="0 0 72 32"><path fill="currentColor" d="M28.285 5.345c0-.734.157-1.397.489-1.991s.803-1.048 1.378-1.38c.576-.332 1.239-.489 1.954-.489.838 0 1.588.21 2.216.646s1.082 1.031 1.326 1.799h-1.745c-.175-.367-.419-.629-.733-.803s-.663-.262-1.082-.262c-.436 0-.838.105-1.169.314s-.611.489-.803.856c-.192.367-.279.821-.279 1.31s.087.943.279 1.31c.192.367.454.664.803.873s.733.297 1.169.297c.419 0 .768-.087 1.082-.262.314-.192.558-.454.733-.821h1.745c-.244.769-.698 1.38-1.326 1.799s-1.361.629-2.216.629c-.715 0-1.378-.157-1.954-.489s-1.029-.786-1.378-1.38c-.332-.559-.489-1.223-.489-1.956zM40.29 3.057c.454 0 .855.105 1.204.297s.628.489.82.873c.209.384.297.838.297 1.38v3.511h-1.518V5.817c0-.472-.122-.838-.349-1.083-.244-.262-.558-.384-.977-.384s-.75.122-.995.384c-.244.245-.349.611-.349 1.083v3.301h-1.518V1.136h1.518v2.76c.192-.262.454-.454.785-.611s.698-.227 1.082-.227zm3.386 3.057c0-.611.122-1.135.349-1.607.244-.472.576-.821.977-1.083.419-.245.89-.384 1.396-.384.454 0 .838.087 1.169.262s.611.402.803.681v-.856h1.518v5.991H48.37v-.873c-.192.279-.471.507-.803.699-.332.175-.733.262-1.169.262-.506 0-.96-.122-1.378-.384s-.733-.629-.977-1.083c-.244-.472-.366-1.013-.366-1.624zm4.711.017c0-.367-.07-.681-.209-.943s-.332-.472-.576-.611c-.244-.14-.506-.21-.785-.21s-.541.07-.785.21c-.244.14-.436.332-.576.611-.14.262-.209.576-.209.926s.07.681.209.943c.157.262.349.472.576.611.244.14.506.21.785.21s.541-.07.785-.21c.244-.14.436-.349.576-.611.14-.245.209-.559.209-.926zm6.299-3.074c.715 0 1.291.227 1.727.681s.663 1.065.663 1.886v3.511h-1.518V5.816c0-.472-.122-.838-.349-1.083-.244-.262-.558-.384-.977-.384s-.75.122-.995.384c-.244.245-.349.611-.349 1.083v3.301H51.37V3.143h1.518v.751c.209-.262.454-.454.768-.611s.663-.227 1.03-.227zm6.177-.017c.454 0 .838.087 1.169.262s.611.402.803.681v-.856h1.518v6.044c0 .559-.105 1.048-.332 1.485s-.558.786-1.012 1.03c-.454.262-.977.384-1.623.384-.855 0-1.553-.192-2.094-.594s-.838-.943-.925-1.624h1.501c.087.279.244.489.506.646s.594.245.96.245c.436 0 .803-.14 1.064-.402.279-.262.419-.664.419-1.188v-.926c-.192.279-.471.507-.803.699s-.733.279-1.169.279c-.506 0-.959-.122-1.378-.384s-.75-.629-.995-1.083c-.244-.472-.349-1.013-.349-1.624s.122-1.135.349-1.607c.244-.472.576-.821.977-1.083.436-.262.89-.384 1.414-.384zm1.972 3.091c0-.367-.07-.681-.21-.943a1.502 1.502 0 00-1.361-.821c-.28 0-.541.07-.785.21-.244.14-.436.332-.576.611-.14.262-.209.576-.209.926s.07.681.209.943c.157.262.349.472.576.611.244.14.506.21.785.21s.541-.07.786-.21c.244-.14.436-.349.575-.611.14-.245.21-.559.21-.926zm8.55-.122c0 .21-.018.419-.035.576h-4.362c.035.437.192.769.454 1.013s.593.367.977.367c.558 0 .96-.245 1.204-.716h1.623a2.827 2.827 0 01-.995 1.432c-.489.367-1.082.559-1.798.559-.575 0-1.099-.122-1.553-.384s-.803-.629-1.065-1.083c-.244-.472-.383-1.013-.383-1.624s.122-1.17.383-1.624c.244-.472.611-.821 1.065-1.083a3.26 3.26 0 011.57-.384c.576 0 1.082.122 1.518.367a2.53 2.53 0 011.047 1.048c.227.437.349.943.349 1.537zm-1.553-.437c0-.384-.14-.699-.419-.926-.279-.245-.611-.349-1.012-.349-.367 0-.698.122-.942.349s-.402.541-.471.943h2.844v-.017zm-35.195 5.991l-2.548 4.908v2.62h-1.518v-2.62l-2.548-4.908h1.71l1.623 3.441 1.605-3.441h1.675zm3.525 7.633c-.576 0-1.099-.122-1.553-.384s-.82-.629-1.082-1.083c-.262-.472-.384-1.013-.384-1.624s.14-1.153.401-1.624c.279-.472.646-.821 1.117-1.083s.995-.384 1.57-.384c.576 0 1.099.122 1.57.384.471.245.838.611 1.099 1.083.279.472.419 1.013.419 1.624s-.14 1.153-.419 1.624-.646.838-1.117 1.083a3.471 3.471 0 01-1.623.384zm0-1.327c.279 0 .523-.07.768-.192.244-.14.436-.332.576-.611.14-.262.209-.594.209-.978 0-.576-.157-1.013-.454-1.31-.297-.314-.663-.472-1.082-.472s-.803.157-1.082.472c-.279.297-.436.734-.436 1.31s.14 1.013.419 1.31c.297.332.646.472 1.082.472zm9.876-4.751v5.991H46.52v-.751c-.192.262-.454.472-.768.611s-.646.21-1.012.21a2.55 2.55 0 01-1.239-.297c-.366-.21-.646-.489-.855-.873s-.297-.856-.297-1.38v-3.511h1.518v3.301c0 .472.122.838.349 1.1.244.245.558.384.977.384s.75-.122.977-.384c.244-.262.349-.629.349-1.1v-3.301h1.518zm3.001.926a2.38 2.38 0 01.75-.751 2.202 2.202 0 011.082-.262v1.59h-.401c-.471 0-.838.105-1.082.332s-.349.611-.349 1.17v2.987h-1.518v-5.991h1.518v.926zm-20.887 8.698v1.886h2.53v1.205h-2.53v1.991h2.862v1.24h-4.38v-7.546h4.38v1.24h-2.862v-.017zm7.556.262c.715 0 1.291.227 1.727.681s.663 1.066.663 1.886v3.511H38.58v-3.319c0-.472-.122-.838-.349-1.083-.244-.262-.558-.384-.977-.384s-.75.122-.995.384c-.244.245-.349.611-.349 1.083v3.301h-1.518v-5.991h1.518v.751c.209-.262.454-.454.768-.611.314-.14.646-.21 1.029-.21zm9.37 2.935c0 .21-.017.419-.035.576h-4.38c.035.437.192.769.454 1.013s.593.367.977.367c.558 0 .96-.245 1.204-.716h1.623a2.821 2.821 0 01-.995 1.432c-.489.367-1.082.559-1.797.559-.576 0-1.099-.122-1.553-.384s-.803-.629-1.064-1.083c-.244-.472-.384-1.013-.384-1.624s.122-1.17.384-1.624c.244-.472.611-.821 1.064-1.083a3.26 3.26 0 011.57-.384c.576 0 1.082.122 1.518.367.454.245.803.594 1.047 1.048s.366.961.366 1.537zm-1.553-.419c0-.384-.14-.699-.419-.926-.279-.245-.611-.349-1.012-.349-.366 0-.698.122-.942.349s-.401.541-.471.943h2.844v-.017zm4.17-1.503a2.38 2.38 0 01.75-.751 2.202 2.202 0 011.082-.262v1.59h-.401c-.471 0-.838.105-1.082.332s-.349.611-.349 1.17v2.987h-1.518v-5.991h1.518v.926zm5.2-1.03c.454 0 .838.087 1.169.262s.611.402.802.681v-.856h1.518V29.1c0 .559-.105 1.048-.332 1.485s-.558.786-1.012 1.03c-.454.262-.977.384-1.623.384-.855 0-1.553-.192-2.094-.594s-.838-.943-.925-1.624h1.501c.087.279.244.489.506.646s.593.245.96.245c.436 0 .802-.14 1.064-.402.279-.262.419-.664.419-1.188v-.926c-.192.279-.471.507-.803.699s-.733.279-1.169.279c-.506 0-.96-.122-1.378-.384s-.75-.629-.995-1.083c-.244-.472-.349-1.013-.349-1.624s.122-1.135.349-1.607c.244-.472.576-.821.977-1.083a2.837 2.837 0 011.413-.367zm1.972 3.091c0-.367-.07-.681-.209-.943s-.332-.472-.576-.611c-.244-.14-.506-.21-.785-.21s-.541.07-.785.21c-.244.14-.436.332-.576.611-.14.262-.209.576-.209.926 0 .367.07.681.209.943.157.262.349.472.576.611.244.14.506.21.785.21s.541-.07.785-.21c.244-.14.436-.349.576-.611.14-.245.209-.559.209-.926zm8.725-2.986l-3.699 8.821h-1.606l1.292-2.987-2.391-5.834h1.693l1.535 4.175 1.57-4.175h1.606z"/><path fill="var(--color3, #fdefe8)" d="M9.321 28.832a3.252 3.252 0 100-6.504 3.252 3.252 0 000 6.504zM3.13 23.963a2.94 2.94 0 100-5.878 2.94 2.94 0 000 5.878zm-.556-7.165a2.574 2.574 0 100-5.148 2.574 2.574 0 000 5.148zm3.495-5.094a2.156 2.156 0 100-4.311 2.156 2.156 0 000 4.311zm4.974-.662a1.843 1.843 0 100-3.686 1.843 1.843 0 000 3.686zm3.791 2.122a1.582 1.582 0 100-3.165 1.582 1.582 0 000 3.165z"/><path fill="var(--color4, #fdc793)" d="M13.529 6.504a3.252 3.252 0 100-6.504 3.252 3.252 0 000 6.504zm6.556 3.721a2.94 2.94 0 100-5.878 2.94 2.94 0 000 5.878zm1.096 6.365a2.574 2.574 0 100-5.148 2.574 2.574 0 000 5.148zm-3.079 4.538a2.156 2.156 0 100-4.311 2.156 2.156 0 000 4.311zm-4.938.453a1.843 1.843 0 100-3.686 1.843 1.843 0 000 3.686zM9.199 19.25a1.582 1.582 0 100-3.163 1.582 1.582 0 000 3.163z"/></symbol><symbol id="icon-scroll" viewBox="0 0 22 32"><path fill="currentColor" d="M10.667 32C4.775 32 0 27.046 0 20.97v-9.971C0 4.923 4.774 0 10.667 0s10.667 4.923 10.667 10.999v9.971c0 6.076-4.774 11.03-10.667 11.03zm0-29.352c-4.472 0-8.098 3.739-8.098 8.351v9.971c0 4.612 3.626 8.351 8.098 8.351s8.098-3.739 8.098-8.351v-9.971c0-4.612-3.626-8.351-8.098-8.351z"/><path fill="currentColor" d="M10.667 13.333c-.951 0-1.778-.693-1.778-1.568V7.79c0-.839.786-1.568 1.778-1.568s1.778.693 1.778 1.568v3.975c0 .875-.786 1.568-1.778 1.568z"/></symbol><symbol id="icon-user" viewBox="0 0 26 32"><path fill="currentColor" d="M12.563 12.563a6.282 6.282 0 110-12.565 6.282 6.282 0 010 12.565zm0-9.422a3.141 3.141 0 100 6.282 3.141 3.141 0 000-6.282zm7.852 28.266H4.711A4.709 4.709 0 010 26.696a12.562 12.562 0 0125.126 0 4.714 4.714 0 01-4.711 4.711h.001zm-7.852-14.133a9.425 9.425 0 00-9.423 9.422 1.573 1.573 0 001.57 1.57h15.704a1.572 1.572 0 001.57-1.57 9.421 9.421 0 00-9.423-9.422z"/></symbol><symbol id="icon-search" viewBox="0 0 32 32"><path fill="currentColor" d="M13.352 2.604c-5.891 0-10.667 4.776-10.667 10.667s4.776 10.667 10.667 10.667c2.449 0 4.77-.841 6.57-2.228l5.804 5.853c.521.52 1.396.52 1.917 0a1.371 1.371 0 000-1.917l-5.845-5.813a10.784 10.784 0 002.22-6.561c0-5.891-4.776-10.667-10.667-10.667zm0 2.667c4.418 0 8 3.581 8 8s-3.582 8-8 8-8-3.581-8-8 3.582-8 8-8z"/></symbol><symbol id="icon-burger" viewBox="0 0 32 32"><path fill="currentColor" d="M28 10.333H4c-.547 0-1-.453-1-1s.453-1 1-1h24c.547 0 1 .453 1 1s-.453 1-1 1zM28 17H4c-.547 0-1-.453-1-1s.453-1 1-1h24c.547 0 1 .453 1 1s-.453 1-1 1zm0 6.667H4c-.547 0-1-.453-1-1s.453-1 1-1h24c.547 0 1 .453 1 1s-.453 1-1 1z"/></symbol></defs></svg>